# xmcd CD database file
#
# Track frame offsets:
#	150
#	21937
#	42950
#	59925
#	74550
#	89597
#	109462
#	124812
#	142950
#	160525
#
# Disc length: 2401 seconds
#
# Revision: 0
# Processed by: cddbd v1.4PL0 Copyright (c) Steve Scherf et al.
# Submitted via: CDex 1.50beta10
#
DISCID=96095f0a
DTITLE=Jutta Hipp - At The Hickory House Vol. 2
DYEAR=1956
DGENRE=Jazz
TTITLE0=Gone With The Wind
TTITLE1=After Hours
TTITLE2=The Squirrel
TTITLE3=We'll Be Together Again
TTITLE4=Horacio
TTITLE5=I Married An Angel
TTITLE6=Moonlight In Vermont
TTITLE7=Star Eyes
TTITLE8=If I Had You
TTITLE9=My Heart Stood Still
EXTD=YEAR: 1956
EXTT0=
EXTT1=
EXTT2=
EXTT3=
EXTT4=
EXTT5=
EXTT6=
EXTT7=
EXTT8=
EXTT9=
PLAYORDER=
